<svg width="20" height="20" viewBox="0 0 20 20" fill="none" xmlns="http://www.w3.org/2000/svg">
<g id="SVG">
<path id="Vector" d="M11.8761 6.2502C11.8761 6.08444 11.9419 5.92547 12.0591 5.80826C12.1764 5.69105 12.3353 5.6252 12.5011 5.6252H19.3761C19.5418 5.6252 19.7008 5.69105 19.818 5.80826C19.9352 5.92547 20.0011 6.08444 20.0011 6.2502C20.0011 6.41596 19.9352 6.57493 19.818 6.69214C19.7008 6.80935 19.5418 6.8752 19.3761 6.8752H12.5011C12.3353 6.8752 12.1764 6.80935 12.0591 6.69214C11.9419 6.57493 11.8761 6.41596 11.8761 6.2502ZM19.3761 9.3752H12.5011C12.3353 9.3752 12.1764 9.44105 12.0591 9.55826C11.9419 9.67547 11.8761 9.83444 11.8761 10.0002C11.8761 10.166 11.9419 10.3249 12.0591 10.4421C12.1764 10.5594 12.3353 10.6252 12.5011 10.6252H19.3761C19.5418 10.6252 19.7008 10.5594 19.818 10.4421C19.9352 10.3249 20.0011 10.166 20.0011 10.0002C20.0011 9.83444 19.9352 9.67547 19.818 9.55826C19.7008 9.44105 19.5418 9.3752 19.3761 9.3752ZM19.3761 13.1252H14.3761C14.2103 13.1252 14.0514 13.191 13.9341 13.3083C13.8169 13.4255 13.7511 13.5844 13.7511 13.7502C13.7511 13.916 13.8169 14.0749 13.9341 14.1921C14.0514 14.3094 14.2103 14.3752 14.3761 14.3752H19.3761C19.5418 14.3752 19.7008 14.3094 19.818 14.1921C19.9352 14.0749 20.0011 13.916 20.0011 13.7502C20.0011 13.5844 19.9352 13.4255 19.818 13.3083C19.7008 13.191 19.5418 13.1252 19.3761 13.1252ZM11.8566 14.844C11.877 14.9235 11.8816 15.0062 11.87 15.0875C11.8584 15.1688 11.831 15.247 11.7892 15.3176C11.7474 15.3883 11.6921 15.45 11.6264 15.4993C11.5608 15.5486 11.4861 15.5845 11.4066 15.6049C11.3556 15.6186 11.3031 15.6254 11.2503 15.6252C11.1117 15.6253 10.977 15.5793 10.8674 15.4944C10.7578 15.4095 10.6795 15.2907 10.6448 15.1565C10.1636 13.2861 8.27453 11.8752 6.25031 11.8752C4.22609 11.8752 2.33703 13.2854 1.85578 15.1565C1.81434 15.317 1.7108 15.4546 1.56795 15.5388C1.4251 15.6231 1.25464 15.6471 1.09406 15.6057C0.933477 15.5642 0.795935 15.4607 0.71169 15.3178C0.627446 15.175 0.603398 15.0045 0.644838 14.844C1.08156 13.1479 2.35109 11.7744 3.96203 11.094C3.34174 10.6162 2.88655 9.95625 2.66029 9.2067C2.43404 8.45715 2.44807 7.65558 2.70042 6.91441C2.95277 6.17324 3.43078 5.52964 4.06741 5.07388C4.70404 4.61811 5.46735 4.37305 6.25031 4.37305C7.03326 4.37305 7.79658 4.61811 8.43321 5.07388C9.06984 5.52964 9.54784 6.17324 9.80019 6.91441C10.0525 7.65558 10.0666 8.45715 9.84032 9.2067C9.61407 9.95625 9.15888 10.6162 8.53859 11.094C10.1503 11.7744 11.4198 13.1479 11.8566 14.844ZM6.25109 10.6252C6.74554 10.6252 7.22889 10.4786 7.64001 10.2039C8.05114 9.92917 8.37157 9.53872 8.56079 9.08191C8.75001 8.62509 8.79951 8.12243 8.70305 7.63748C8.60659 7.15252 8.36849 6.70706 8.01886 6.35743C7.66922 6.0078 7.22377 5.7697 6.73881 5.67324C6.25386 5.57677 5.75119 5.62628 5.29438 5.8155C4.83756 6.00472 4.44712 6.32515 4.17241 6.73628C3.89771 7.1474 3.75109 7.63075 3.75109 8.1252C3.75109 8.78824 4.01448 9.42413 4.48332 9.89297C4.95216 10.3618 5.58805 10.6252 6.25109 10.6252Z" fill="white"/>
</g>
</svg>
