<svg width="17" height="16" viewBox="0 0 17 16" fill="none" xmlns="http://www.w3.org/2000/svg">
<path id="Vector" d="M15 4.56261H12.2594C12.2898 4.53683 12.3211 4.51183 12.3508 4.48449C12.5881 4.27369 12.7793 4.0162 12.9125 3.72812C13.0457 3.44005 13.1181 3.12758 13.125 2.81027C13.1353 2.46314 13.0745 2.11758 12.9463 1.79479C12.8182 1.47201 12.6255 1.17881 12.38 0.933212C12.1344 0.68761 11.8413 0.494783 11.5186 0.366568C11.1958 0.238352 10.8503 0.177455 10.5031 0.187614C10.1857 0.194452 9.87307 0.266743 9.58485 0.399963C9.29663 0.533184 9.03901 0.724465 8.82812 0.961833C8.53631 1.30003 8.29908 1.68171 8.125 2.09308C7.95092 1.68171 7.71369 1.30003 7.42188 0.961833C7.21099 0.724465 6.95337 0.533184 6.66515 0.399963C6.37693 0.266743 6.06432 0.194452 5.74687 0.187614C5.39974 0.177455 5.0542 0.238352 4.73145 0.366568C4.4087 0.494783 4.11557 0.68761 3.87004 0.933212C3.62451 1.17881 3.43177 1.47201 3.30365 1.79479C3.17553 2.11758 3.11474 2.46314 3.125 2.81027C3.13194 3.12758 3.20429 3.44005 3.3375 3.72812C3.47072 4.0162 3.66195 4.27369 3.89922 4.48449C3.92891 4.51027 3.96016 4.53527 3.99063 4.56261H1.25C0.918479 4.56261 0.600537 4.69431 0.366116 4.92873C0.131696 5.16315 0 5.48109 0 5.81261V8.31261C0 8.64413 0.131696 8.96208 0.366116 9.1965C0.600537 9.43092 0.918479 9.56261 1.25 9.56261V14.5626C1.25 14.8941 1.3817 15.2121 1.61612 15.4465C1.85054 15.6809 2.16848 15.8126 2.5 15.8126H7.1875C7.27038 15.8126 7.34987 15.7797 7.40847 15.7211C7.46708 15.6625 7.5 15.583 7.5 15.5001V8.31261H1.25V5.81261H7.5V8.31261H8.75V5.81261H15V8.31261H8.75V15.5001C8.75 15.583 8.78292 15.6625 8.84153 15.7211C8.90013 15.7797 8.97962 15.8126 9.0625 15.8126H13.75C14.0815 15.8126 14.3995 15.6809 14.6339 15.4465C14.8683 15.2121 15 14.8941 15 14.5626V9.56261C15.3315 9.56261 15.6495 9.43092 15.8839 9.1965C16.1183 8.96208 16.25 8.64413 16.25 8.31261V5.81261C16.25 5.48109 16.1183 5.16315 15.8839 4.92873C15.6495 4.69431 15.3315 4.56261 15 4.56261ZM4.72734 3.54699C4.61806 3.44803 4.53042 3.32755 4.46992 3.1931C4.40942 3.05866 4.37737 2.91316 4.37578 2.76574C4.37183 2.59301 4.40239 2.42122 4.46568 2.26045C4.52896 2.09968 4.6237 1.95316 4.74433 1.82947C4.86497 1.70578 5.00908 1.60741 5.16821 1.54012C5.32735 1.47283 5.49832 1.43798 5.67109 1.43761H5.70938C5.8568 1.4392 6.00229 1.47126 6.13674 1.53175C6.27118 1.59225 6.39167 1.6799 6.49063 1.78918C7.14609 2.5298 7.37734 3.75793 7.45859 4.5173C6.69609 4.43683 5.46875 4.20558 4.72734 3.54699ZM11.5242 3.54699C10.7828 4.20324 9.55234 4.43449 8.78984 4.51574C8.88281 3.69465 9.14062 2.4923 9.76562 1.78996C9.86458 1.68068 9.98507 1.59304 10.1195 1.53254C10.254 1.47204 10.3995 1.43999 10.5469 1.4384H10.5852C10.7579 1.43948 10.9288 1.47503 11.0876 1.54298C11.2465 1.61093 11.3902 1.70991 11.5104 1.83411C11.6305 1.95831 11.7246 2.10524 11.7872 2.26629C11.8498 2.42734 11.8797 2.59926 11.875 2.77199C11.8725 2.91841 11.8399 3.06275 11.7793 3.19606C11.7187 3.32937 11.6313 3.44881 11.5227 3.54699H11.5242Z" fill="white"/>
</svg>
