<svg width="18" height="20" viewBox="0 0 18 20" fill="none" xmlns="http://www.w3.org/2000/svg">
<g id="SVG">
<path id="Vector" d="M13.7096 3.39929C12.6878 2.21922 11.5378 1.15661 10.2808 0.231087C10.1695 0.153141 10.037 0.111328 9.90111 0.111328C9.76525 0.111328 9.63268 0.153141 9.52141 0.231087C8.26675 1.157 7.11898 2.2196 6.09926 3.39929C3.82527 6.01077 2.625 8.76371 2.625 11.3612C2.625 13.2918 3.39194 15.1433 4.75709 16.5085C6.12225 17.8737 7.97379 18.6406 9.90441 18.6406C11.835 18.6406 13.6865 17.8737 15.0517 16.5085C16.4169 15.1433 17.1838 13.2918 17.1838 11.3612C17.1838 8.76371 15.9836 6.01077 13.7096 3.39929ZM14.5244 12.1338C14.3528 13.0922 13.8916 13.9752 13.203 14.6637C12.5144 15.352 11.6314 15.813 10.6729 15.9844C10.6376 15.99 10.6019 15.9931 10.5662 15.9935C10.4002 15.9934 10.2403 15.9311 10.1181 15.8186C9.99601 15.7061 9.9206 15.5519 9.90686 15.3865C9.89312 15.2211 9.94205 15.0565 10.0439 14.9255C10.1458 14.7945 10.2933 14.7065 10.457 14.6791C11.8277 14.4482 12.9907 13.2852 13.2232 11.912C13.2526 11.739 13.3495 11.5846 13.4926 11.4831C13.6359 11.3814 13.8136 11.3408 13.9866 11.3702C14.1598 11.3997 14.3141 11.4966 14.4157 11.6398C14.5174 11.783 14.5579 11.9607 14.5285 12.1338H14.5244Z" fill="white"/>
</g>
</svg>
