<svg width="30" height="30" viewBox="0 0 30 30" fill="none" xmlns="http://www.w3.org/2000/svg">
<g id="ph:plus-fill">
<path id="Vector" d="M24.0625 4.125H5.9375C5.4568 4.125 4.99578 4.31596 4.65587 4.65587C4.31596 4.99578 4.125 5.4568 4.125 5.9375V24.0625C4.125 24.5432 4.31596 25.0042 4.65587 25.3441C4.99578 25.684 5.4568 25.875 5.9375 25.875H24.0625C24.5432 25.875 25.0042 25.684 25.3441 25.3441C25.684 25.0042 25.875 24.5432 25.875 24.0625V5.9375C25.875 5.4568 25.684 4.99578 25.3441 4.65587C25.0042 4.31596 24.5432 4.125 24.0625 4.125ZM21.3438 15.9062H15.9062V21.3438C15.9062 21.5841 15.8108 21.8146 15.6408 21.9846C15.4709 22.1545 15.2404 22.25 15 22.25C14.7596 22.25 14.5291 22.1545 14.3592 21.9846C14.1892 21.8146 14.0938 21.5841 14.0938 21.3438V15.9062H8.65625C8.4159 15.9062 8.18539 15.8108 8.01543 15.6408C7.84548 15.4709 7.75 15.2404 7.75 15C7.75 14.7596 7.84548 14.5291 8.01543 14.3592C8.18539 14.1892 8.4159 14.0938 8.65625 14.0938H14.0938V8.65625C14.0938 8.4159 14.1892 8.18539 14.3592 8.01543C14.5291 7.84548 14.7596 7.75 15 7.75C15.2404 7.75 15.4709 7.84548 15.6408 8.01543C15.8108 8.18539 15.9062 8.4159 15.9062 8.65625V14.0938H21.3438C21.5841 14.0938 21.8146 14.1892 21.9846 14.3592C22.1545 14.5291 22.25 14.7596 22.25 15C22.25 15.2404 22.1545 15.4709 21.9846 15.6408C21.8146 15.8108 21.5841 15.9062 21.3438 15.9062Z" fill="#D0AAFF"/>
</g>
</svg>
