<svg width="13" height="8" viewBox="0 0 13 8" fill="none" xmlns="http://www.w3.org/2000/svg">
<path id="Vector" fill-rule="evenodd" clip-rule="evenodd" d="M6.87533 7.31268C6.76673 7.42114 6.61952 7.48206 6.46604 7.48206C6.31255 7.48206 6.16534 7.42114 6.05674 7.31268L0.264824 1.52076C0.162515 1.41096 0.106818 1.26574 0.109465 1.11569C0.112113 0.965642 0.172898 0.822477 0.279016 0.716359C0.385134 0.610241 0.528299 0.549455 0.678349 0.546807C0.828399 0.54416 0.97362 0.599857 1.08341 0.702166L6.46604 6.08479L11.8487 0.702166C11.9017 0.645261 11.9656 0.599619 12.0367 0.567963C12.1077 0.536306 12.1844 0.519285 12.2622 0.517912C12.34 0.51654 12.4172 0.530846 12.4893 0.559976C12.5614 0.589106 12.627 0.632464 12.682 0.687463C12.737 0.742463 12.7803 0.807976 12.8094 0.880095C12.8386 0.952215 12.8529 1.02946 12.8515 1.10723C12.8501 1.185 12.8331 1.2617 12.8015 1.33274C12.7698 1.40379 12.7242 1.46773 12.6673 1.52076L6.87533 7.31268Z" fill="#9A8FFF"/>
</svg>
