<svg width="13" height="8" viewBox="0 0 13 8" fill="none" xmlns="http://www.w3.org/2000/svg">
<path id="Vector" fill-rule="evenodd" clip-rule="evenodd" d="M5.97623 0.68708C6.08483 0.578616 6.23204 0.517693 6.38553 0.517693C6.53901 0.517693 6.68622 0.578616 6.79482 0.68708L12.5867 6.479C12.689 6.58879 12.7447 6.73401 12.7421 6.88406C12.7394 7.03411 12.6787 7.17728 12.5725 7.2834C12.4664 7.38952 12.3233 7.4503 12.1732 7.45295C12.0232 7.4556 11.8779 7.3999 11.7681 7.29759L6.38553 1.91497L1.0029 7.29759C0.949879 7.35449 0.885936 7.40014 0.814889 7.43179C0.743842 7.46345 0.667146 7.48047 0.589377 7.48184C0.511609 7.48321 0.434361 7.46891 0.362242 7.43978C0.290122 7.41065 0.224608 7.36729 0.169609 7.31229C0.11461 7.25729 0.0712519 7.19178 0.042121 7.11966C0.012991 7.04754 -0.00131412 6.97029 5.82257e-05 6.89252C0.00143057 6.81476 0.0184518 6.73806 0.050108 6.66701C0.0817643 6.59597 0.127405 6.53202 0.184311 6.479L5.97623 0.68708Z" fill="#9A8FFF"/>
</svg>
