<svg width="122" height="40" viewBox="0 0 122 40" fill="none" xmlns="http://www.w3.org/2000/svg">
<g id="Layer 1">
<g id="Group">
<path id="Vector" d="M40.0002 20C40.0002 31.0483 31.0443 40 20.0001 40C8.9559 40 0 31.0483 0 20C0 8.95166 8.9559 0 20.0001 0C31.0443 0 40.0002 8.95585 40.0002 20Z" fill="white"/>
<path id="Vector_2" d="M28.2108 22.139V22.1809C28.2108 23.2732 27.3235 24.1604 26.2312 24.1604C25.139 24.1604 24.2517 25.0476 24.2517 26.1399V26.3282C24.2517 27.4205 23.3645 28.3077 22.2722 28.3077H17.9157C16.8234 28.3077 15.9362 27.4205 15.9362 26.3282V26.1399C15.9362 25.0476 15.0489 24.1604 13.9566 24.1604H13.7683C12.676 24.1604 11.7888 23.2732 11.7888 22.1809V17.8243C11.7888 16.732 12.676 15.8448 13.7683 15.8448H13.9566C15.0489 15.8448 15.9362 14.9576 15.9362 13.8653V13.677C15.9362 12.5847 16.8234 11.6975 17.9157 11.6975H24.3354C25.4277 11.6975 26.3149 12.5847 26.3149 13.677V13.8863C26.3149 14.9785 25.4277 15.8657 24.3354 15.8657H17.9408C16.8485 15.8657 15.9613 16.753 15.9613 17.8452V22.1558C15.9613 23.248 16.8485 24.1353 17.9408 24.1353H22.2513C23.3436 24.1353 24.2308 23.248 24.2308 22.1558V22.139C24.2308 21.0467 25.118 20.1595 26.2103 20.1595H26.2354C27.3277 20.1595 28.2149 21.0467 28.2149 22.139H28.2108Z" fill="black"/>
<path id="Vector_3" d="M45.5127 19.9917C45.5127 16.0662 48.0655 13.1033 52.0078 13.1033C56.1928 13.1033 57.9965 15.9365 58.3355 18.2843H56.3644C55.971 16.4261 54.7322 14.7354 51.9911 14.7354C49.4382 14.7354 47.4671 16.6145 47.4671 19.9917C47.4671 23.369 49.4382 25.2481 51.9911 25.2481C54.7322 25.2481 56.0087 23.5573 56.3853 21.6825H58.3774C58.097 24.0093 56.2556 26.9011 51.9953 26.9011C48.1492 26.9011 45.5169 24.0679 45.5169 19.9917" fill="white"/>
<path id="Vector_4" d="M60.7539 17.3257H62.4614V19.0709C62.8548 18.2841 63.7964 17.2295 65.5583 17.2295H65.8219V18.9956H65.3532C63.3068 18.9956 62.52 20.1966 62.52 22.038V26.6206H60.7539V17.3257Z" fill="white"/>
<path id="Vector_5" d="M74.0446 21.0421C73.9692 19.2383 72.7472 18.4306 71.4164 18.4306C69.8596 18.4306 68.8803 19.2927 68.6752 21.0421H74.0446ZM66.8547 22.0004C66.8547 19.0333 68.5831 17.0454 71.4164 17.0454C74.2496 17.0454 76.091 19.2425 75.9027 22.3938H68.6208C68.6752 24.3105 69.6712 25.453 71.3787 25.453C72.8811 25.453 73.5758 24.6663 73.9316 23.7456H75.7353C75.4549 24.9676 74.3082 26.901 71.4164 26.901C68.5245 26.901 66.8547 24.9299 66.8547 22.0004Z" fill="white"/>
<path id="Vector_6" d="M82.5697 25.4363C84.4111 25.4363 85.6875 24.0845 85.6875 21.9628C85.6875 19.841 84.4111 18.5102 82.5697 18.5102C80.7283 18.5102 79.4896 19.8619 79.4896 21.9628C79.4896 24.0636 80.6907 25.4363 82.5697 25.4363ZM77.6858 21.9628C77.6858 19.1295 79.4896 17.0454 82.2475 17.0454C84.0679 17.0454 85.156 17.9075 85.608 18.5478V17.3258H87.3155V26.6164H85.608V25.2647C85.403 25.6037 84.3316 26.8968 82.2642 26.8968C79.5063 26.8968 77.6816 24.8713 77.6816 21.9586" fill="white"/>
<path id="Vector_7" d="M90.9613 23.7453V18.6773H89.2705V17.3256H90.9613V14.9778H92.7064V17.3256H94.9203V18.6773H92.7064V23.8039C92.7064 24.7999 93.196 25.118 94.0581 25.118H94.9203V26.6204H93.5141C91.8819 26.6204 90.9613 25.6076 90.9613 23.7495" fill="white"/>
<path id="Vector_8" d="M101.339 25.4363C103.256 25.4363 104.457 23.9548 104.457 21.946C104.457 19.9372 103.273 18.4934 101.339 18.4934C99.4058 18.4934 98.2214 19.9037 98.2214 21.946C98.2214 23.9883 99.4225 25.4363 101.339 25.4363ZM96.4219 21.9628C96.4219 19.0542 98.506 17.0454 101.339 17.0454C104.172 17.0454 106.257 19.0542 106.257 21.9628C106.257 24.8713 104.172 26.901 101.339 26.901C98.506 26.901 96.4219 24.8755 96.4219 21.9628Z" fill="white"/>
<path id="Vector_9" d="M119.418 17.3262L117.204 25.2316L115.288 17.3262H113.338L111.517 25.2316L109.282 17.3262H107.537L110.312 26.621H112.605L114.334 19.2429L116.058 26.621H118.313L121.109 17.3262H119.418Z" fill="white"/>
</g>
</g>
</svg>
