<svg width="13" height="16" viewBox="0 0 13 16" fill="none" xmlns="http://www.w3.org/2000/svg">
<g id="SVG">
<path id="Vector" d="M9.95566 3.3274C9.23236 2.49208 8.41832 1.73991 7.52856 1.08477C7.4498 1.0296 7.35596 1 7.2598 1C7.16364 1 7.0698 1.0296 6.99104 1.08477C6.10292 1.74018 5.29046 2.49235 4.56865 3.3274C2.95899 5.17595 2.10938 7.12464 2.10938 8.96327C2.10938 10.3298 2.65226 11.6405 3.61859 12.6068C4.58492 13.5732 5.89554 14.116 7.26214 14.116C8.62875 14.116 9.93934 13.5732 10.9057 12.6068C11.872 11.6405 12.4149 10.3298 12.4149 8.96327C12.4149 7.12464 11.5653 5.17595 9.95566 3.3274ZM10.5324 9.51015C10.4109 10.1886 10.0845 10.8136 9.59707 11.3009C9.10965 11.7882 8.48461 12.1145 7.80611 12.2358C7.78113 12.2398 7.75588 12.242 7.73058 12.2423C7.61307 12.2422 7.49988 12.1981 7.41343 12.1185C7.32698 12.0389 7.2736 11.9297 7.26388 11.8126C7.25415 11.6955 7.28878 11.579 7.36091 11.4863C7.43304 11.3935 7.5374 11.3313 7.65329 11.3118C8.62353 11.1485 9.4468 10.3252 9.61134 9.35317C9.63215 9.23067 9.70078 9.12141 9.80209 9.04954C9.90353 8.97759 10.0293 8.94886 10.1518 8.96968C10.2744 8.9905 10.3835 9.05912 10.4555 9.16047C10.5274 9.26182 10.5562 9.38765 10.5353 9.51015H10.5324Z" fill="#9A8FFF"/>
</g>
</svg>
