<svg width="24" height="24" viewBox="0 0 24 24" fill="none" xmlns="http://www.w3.org/2000/svg">
<g id="menu" clip-path="url(#clip0_489_2185)">
<path id="Vector" d="M4.00293 18H20.0029C20.5529 18 21.0029 17.55 21.0029 17C21.0029 16.45 20.5529 16 20.0029 16H4.00293C3.45293 16 3.00293 16.45 3.00293 17C3.00293 17.55 3.45293 18 4.00293 18ZM4.00293 13H20.0029C20.5529 13 21.0029 12.55 21.0029 12C21.0029 11.45 20.5529 11 20.0029 11H4.00293C3.45293 11 3.00293 11.45 3.00293 12C3.00293 12.55 3.45293 13 4.00293 13ZM3.00293 7C3.00293 7.55 3.45293 8 4.00293 8H20.0029C20.5529 8 21.0029 7.55 21.0029 7C21.0029 6.45 20.5529 6 20.0029 6H4.00293C3.45293 6 3.00293 6.45 3.00293 7Z" fill="white"/>
</g>
<defs>
<clipPath id="clip0_489_2185">
<rect width="24" height="24" fill="white" transform="translate(0.00292969)"/>
</clipPath>
</defs>
</svg>
