<svg width="24" height="24" viewBox="0 0 24 24" fill="none" xmlns="http://www.w3.org/2000/svg">
<g id="search" clip-path="url(#clip0_417_54877)">
<path id="Vector" d="M15.5029 14H14.7129L14.4329 13.73C15.6329 12.33 16.2529 10.42 15.9129 8.39002C15.4429 5.61002 13.1229 3.39002 10.3229 3.05002C6.09294 2.53002 2.53294 6.09001 3.05294 10.32C3.39294 13.12 5.61295 15.44 8.39295 15.91C10.4229 16.25 12.3329 15.63 13.7329 14.43L14.0029 14.71V15.5L18.2529 19.75C18.6629 20.16 19.3329 20.16 19.7429 19.75C20.1529 19.34 20.1529 18.67 19.7429 18.26L15.5029 14ZM9.50294 14C7.01295 14 5.00294 11.99 5.00294 9.50002C5.00294 7.01002 7.01295 5.00002 9.50294 5.00002C11.9929 5.00002 14.0029 7.01002 14.0029 9.50002C14.0029 11.99 11.9929 14 9.50294 14Z" fill="#9A8FFF"/>
</g>
<defs>
<clipPath id="clip0_417_54877">
<rect width="24" height="24" fill="white" transform="translate(0.00292969)"/>
</clipPath>
</defs>
</svg>
