<svg width="17" height="20" viewBox="0 0 17 20" fill="none" xmlns="http://www.w3.org/2000/svg">
<g id="Frame">
<path id="Vector" fill-rule="evenodd" clip-rule="evenodd" d="M14.3326 10.2456C14.6948 9.52879 14.9173 8.76675 14.9173 7.97612C14.9163 6.99768 14.5271 6.05964 13.8352 5.36778C13.1433 4.67592 12.2052 4.28675 11.2268 4.28564C9.9977 4.28564 8.92151 4.81422 8.25065 5.70767C7.57982 4.81422 6.50363 4.28564 5.27446 4.28564C4.29602 4.28675 3.35798 4.67592 2.66612 5.36778C1.97425 6.05964 1.58509 6.99768 1.58398 7.97612C1.58398 12.1428 7.76196 15.5154 8.02505 15.6547C8.09438 15.692 8.17195 15.7115 8.25065 15.7115C8.32936 15.7115 8.40692 15.692 8.47625 15.6547C8.54536 15.6181 9.02269 15.3584 9.6889 14.9198C9.19298 14.3496 8.91732 13.6176 8.91732 12.8571C8.91732 11.7356 9.43556 10.5471 10.4174 9.41959C10.8576 8.91026 11.3531 8.45149 11.8948 8.05173C11.9428 8.01808 12.0001 8.00002 12.0587 8.00002C12.1174 8.00002 12.1746 8.01808 12.2227 8.05173C12.7654 8.45132 13.2619 8.9101 13.703 9.41959C13.9402 9.69195 14.1503 9.96789 14.3326 10.2456Z" fill="white"/>
<path id="Vector_2" d="M13.254 10.3199C12.9331 9.93168 12.572 9.58213 12.1773 9.27768C12.1424 9.25203 12.1008 9.23828 12.0581 9.23828C12.0154 9.23828 11.9738 9.25203 11.9389 9.27768C11.5449 9.58226 11.1846 9.9318 10.8643 10.3199C10.1504 11.1789 9.77344 12.0845 9.77344 12.9389C9.77344 13.5741 10.0143 14.1831 10.4429 14.6322C10.8716 15.0813 11.453 15.3335 12.0592 15.3335C12.6653 15.3335 13.2467 15.0813 13.6754 14.6322C14.104 14.1831 14.3449 13.5741 14.3449 12.9389C14.3449 12.0845 13.968 11.1789 13.254 10.3199ZM13.5098 13.1931C13.456 13.5084 13.3111 13.7988 13.0949 14.0253C12.8787 14.2518 12.6014 14.4034 12.3004 14.4598C12.2894 14.4616 12.2782 14.4627 12.2669 14.4627C12.2148 14.4627 12.1646 14.4422 12.1263 14.4052C12.0879 14.3683 12.0643 14.3175 12.0599 14.2631C12.0556 14.2086 12.071 14.1545 12.103 14.1114C12.135 14.0683 12.1813 14.0394 12.2326 14.0304C12.663 13.9545 13.0282 13.5718 13.1012 13.1202C13.1104 13.0632 13.1409 13.0125 13.1859 12.979C13.2308 12.9456 13.2866 12.9322 13.341 12.9419C13.3953 12.9516 13.4438 12.9835 13.4757 13.0306C13.5076 13.0777 13.5203 13.1362 13.5111 13.1931H13.5098Z" fill="white"/>
</g>
</svg>
