<svg width="15" height="12" viewBox="0 0 15 12" fill="none" xmlns="http://www.w3.org/2000/svg">
<path id="Vector" d="M1.5 9H3.75C4.1625 9 4.5 8.6625 4.5 8.25C4.5 7.8375 4.1625 7.5 3.75 7.5H1.5C1.0875 7.5 0.75 7.8375 0.75 8.25C0.75 8.6625 1.0875 9 1.5 9ZM6.375 9H8.625C9.0375 9 9.375 8.6625 9.375 8.25C9.375 7.8375 9.0375 7.5 8.625 7.5H6.375C5.9625 7.5 5.625 7.8375 5.625 8.25C5.625 8.6625 5.9625 9 6.375 9ZM11.25 9H13.5C13.9125 9 14.25 8.6625 14.25 8.25C14.25 7.8375 13.9125 7.5 13.5 7.5H11.25C10.8375 7.5 10.5 7.8375 10.5 8.25C10.5 8.6625 10.8375 9 11.25 9ZM1.5 12C1.9125 12 2.25 11.6625 2.25 11.25C2.25 10.8375 1.9125 10.5 1.5 10.5C1.0875 10.5 0.75 10.8375 0.75 11.25C0.75 11.6625 1.0875 12 1.5 12ZM4.5 12C4.9125 12 5.25 11.6625 5.25 11.25C5.25 10.8375 4.9125 10.5 4.5 10.5C4.0875 10.5 3.75 10.8375 3.75 11.25C3.75 11.6625 4.0875 12 4.5 12ZM7.5 12C7.9125 12 8.25 11.6625 8.25 11.25C8.25 10.8375 7.9125 10.5 7.5 10.5C7.0875 10.5 6.75 10.8375 6.75 11.25C6.75 11.6625 7.0875 12 7.5 12ZM10.5 12C10.9125 12 11.25 11.6625 11.25 11.25C11.25 10.8375 10.9125 10.5 10.5 10.5C10.0875 10.5 9.75 10.8375 9.75 11.25C9.75 11.6625 10.0875 12 10.5 12ZM13.5 12C13.9125 12 14.25 11.6625 14.25 11.25C14.25 10.8375 13.9125 10.5 13.5 10.5C13.0875 10.5 12.75 10.8375 12.75 11.25C12.75 11.6625 13.0875 12 13.5 12ZM1.5 6H6C6.4125 6 6.75 5.6625 6.75 5.25C6.75 4.8375 6.4125 4.5 6 4.5H1.5C1.0875 4.5 0.75 4.8375 0.75 5.25C0.75 5.6625 1.0875 6 1.5 6ZM9 6H13.5C13.9125 6 14.25 5.6625 14.25 5.25C14.25 4.8375 13.9125 4.5 13.5 4.5H9C8.5875 4.5 8.25 4.8375 8.25 5.25C8.25 5.6625 8.5875 6 9 6ZM0.75 0.75V2.25C0.75 2.6625 1.0875 3 1.5 3H13.5C13.9125 3 14.25 2.6625 14.25 2.25V0.75C14.25 0.3375 13.9125 0 13.5 0H1.5C1.0875 0 0.75 0.3375 0.75 0.75Z" fill="#9A8FFF"/>
</svg>
