<svg width="18" height="18" viewBox="0 0 18 18" fill="none" xmlns="http://www.w3.org/2000/svg">
<g id="Icon" clip-path="url(#clip0_564_3852)">
<path id="Vector" d="M12 12.7575V8.25001C12 7.83751 11.6625 7.50001 11.25 7.50001C10.8375 7.50001 10.5 7.83751 10.5 8.25001V12.7575H9.15752C8.82002 12.7575 8.65502 13.1625 8.89502 13.395L10.9875 15.48C11.1375 15.6225 11.37 15.6225 11.52 15.48L13.6125 13.395C13.8525 13.1625 13.68 12.7575 13.35 12.7575H12V12.7575ZM6.48752 2.51251L4.39502 4.60501C4.15502 4.83751 4.32002 5.24251 4.65752 5.24251H6.00002V9.75002C6.00002 10.1625 6.33752 10.5 6.75002 10.5C7.16252 10.5 7.50002 10.1625 7.50002 9.75002V5.24251H8.84252C9.18002 5.24251 9.34502 4.83751 9.10502 4.60501L7.01252 2.51251C6.87002 2.37001 6.63002 2.37001 6.48752 2.51251Z" fill="white" fill-opacity="0.44"/>
</g>
<defs>
<clipPath id="clip0_564_3852">
<rect width="18" height="18" fill="white"/>
</clipPath>
</defs>
</svg>
