<svg width="17" height="17" viewBox="0 0 17 17" fill="none" xmlns="http://www.w3.org/2000/svg">
<g id="SVG">
<path id="Vector" d="M13.9622 2.22656H12.4622V1.72656C12.4622 1.59395 12.4095 1.46678 12.3157 1.37301C12.2219 1.27924 12.0948 1.22656 11.9622 1.22656C11.8295 1.22656 11.7024 1.27924 11.6086 1.37301C11.5148 1.46678 11.4622 1.59395 11.4622 1.72656V2.22656H6.46216V1.72656C6.46216 1.59395 6.40948 1.46678 6.31571 1.37301C6.22194 1.27924 6.09477 1.22656 5.96216 1.22656C5.82955 1.22656 5.70237 1.27924 5.6086 1.37301C5.51484 1.46678 5.46216 1.59395 5.46216 1.72656V2.22656H3.96216C3.69694 2.22656 3.44259 2.33192 3.25505 2.51946C3.06752 2.70699 2.96216 2.96135 2.96216 3.22656V13.2266C2.96216 13.4918 3.06752 13.7461 3.25505 13.9337C3.44259 14.1212 3.69694 14.2266 3.96216 14.2266H13.9622C14.2274 14.2266 14.4817 14.1212 14.6693 13.9337C14.8568 13.7461 14.9622 13.4918 14.9622 13.2266V3.22656C14.9622 2.96135 14.8568 2.70699 14.6693 2.51946C14.4817 2.33192 14.2274 2.22656 13.9622 2.22656ZM5.46216 3.22656V3.72656C5.46216 3.85917 5.51484 3.98635 5.6086 4.08012C5.70237 4.17388 5.82955 4.22656 5.96216 4.22656C6.09477 4.22656 6.22194 4.17388 6.31571 4.08012C6.40948 3.98635 6.46216 3.85917 6.46216 3.72656V3.22656H11.4622V3.72656C11.4622 3.85917 11.5148 3.98635 11.6086 4.08012C11.7024 4.17388 11.8295 4.22656 11.9622 4.22656C12.0948 4.22656 12.2219 4.17388 12.3157 4.08012C12.4095 3.98635 12.4622 3.85917 12.4622 3.72656V3.22656H13.9622V5.22656H3.96216V3.22656H5.46216ZM13.9622 13.2266H3.96216V6.22656H13.9622V13.2266Z" fill="#94A3B8"/>
</g>
</svg>
