<svg width="17" height="17" viewBox="0 0 17 17" fill="none" xmlns="http://www.w3.org/2000/svg">
<g id="Frame">
<path id="Vector" d="M15.3948 13.4768C14.443 11.8312 12.9761 10.6512 11.2642 10.0918C12.111 9.58771 12.7689 8.8196 13.1368 7.90542C13.5048 6.99124 13.5625 5.98155 13.3011 5.0314C13.0397 4.08124 12.4736 3.24317 11.6898 2.64588C10.906 2.04858 9.94778 1.7251 8.96233 1.7251C7.97687 1.7251 7.01866 2.04858 6.23484 2.64588C5.45103 3.24317 4.88495 4.08124 4.62354 5.0314C4.36213 5.98155 4.41984 6.99124 4.78782 7.90542C5.15579 8.8196 5.81368 9.58771 6.66045 10.0918C4.94858 10.6505 3.4817 11.8305 2.52983 13.4768C2.49492 13.5337 2.47177 13.597 2.46173 13.6631C2.4517 13.7291 2.45499 13.7964 2.47141 13.8611C2.48782 13.9259 2.51704 13.9866 2.55732 14.0399C2.59761 14.0931 2.64815 14.1378 2.70597 14.1712C2.76378 14.2046 2.82771 14.226 2.89396 14.2343C2.96021 14.2426 3.02745 14.2376 3.09172 14.2194C3.15598 14.2013 3.21597 14.1705 3.26813 14.1288C3.3203 14.0872 3.36359 14.0355 3.39545 13.9768C4.57295 11.9418 6.6542 10.7268 8.96233 10.7268C11.2705 10.7268 13.3517 11.9418 14.5292 13.9768C14.5611 14.0355 14.6044 14.0872 14.6565 14.1288C14.7087 14.1705 14.7687 14.2013 14.8329 14.2194C14.8972 14.2376 14.9644 14.2426 15.0307 14.2343C15.0969 14.226 15.1609 14.2046 15.2187 14.1712C15.2765 14.1378 15.327 14.0931 15.3673 14.0399C15.4076 13.9866 15.4368 13.9259 15.4532 13.8611C15.4697 13.7964 15.473 13.7291 15.4629 13.6631C15.4529 13.597 15.4297 13.5337 15.3948 13.4768ZM5.46233 6.2268C5.46233 5.53456 5.6676 4.85787 6.05218 4.2823C6.43677 3.70673 6.98339 3.25813 7.62294 2.99322C8.26248 2.72831 8.96621 2.659 9.64514 2.79405C10.3241 2.9291 10.9477 3.26244 11.4372 3.75192C11.9267 4.24141 12.26 4.86505 12.3951 5.54398C12.5301 6.22292 12.4608 6.92665 12.1959 7.56619C11.931 8.20573 11.4824 8.75236 10.9068 9.13694C10.3313 9.52153 9.65456 9.7268 8.96233 9.7268C8.03437 9.72581 7.14471 9.35674 6.48855 8.70058C5.83239 8.04441 5.46332 7.15475 5.46233 6.2268Z" fill="#94A3B8"/>
</g>
</svg>
