<svg width="16" height="16" viewBox="0 0 16 16" fill="none" xmlns="http://www.w3.org/2000/svg">
<g id="User" clip-path="url(#clip0_727_36536)">
<path id="Vector" d="M14.0025 8C14.0038 8.20378 13.9419 8.40294 13.8252 8.57009C13.7086 8.73723 13.543 8.86414 13.3513 8.93335L10.1275 10.1241L8.94004 13.349C8.86972 13.5399 8.74249 13.7048 8.57552 13.8212C8.40854 13.9376 8.20987 14 8.00629 14C7.80271 14 7.60404 13.9376 7.43707 13.8212C7.27009 13.7048 7.14286 13.5399 7.07254 13.349L5.87754 10.1241L2.65129 8.9371C2.46025 8.86681 2.29537 8.73963 2.17891 8.57273C2.06244 8.40583 2 8.20724 2 8.00375C2 7.80026 2.06244 7.60167 2.17891 7.43476C2.29537 7.26786 2.46025 7.14069 2.65129 7.07039L5.87754 5.8759L7.06504 2.65102C7.13536 2.46005 7.26259 2.29524 7.42957 2.17883C7.59654 2.06242 7.79522 2 7.99879 2C8.20237 2 8.40104 2.06242 8.56802 2.17883C8.73499 2.29524 8.86222 2.46005 8.93254 2.65102L10.1275 5.8759L13.3538 7.0629C13.5457 7.13274 13.7111 7.2604 13.8274 7.42825C13.9436 7.59611 14.0048 7.79588 14.0025 8Z" fill="#94A3B8"/>
</g>
<defs>
<clipPath id="clip0_727_36536">
<rect width="16" height="16" fill="white"/>
</clipPath>
</defs>
</svg>
