<svg width="17" height="16" viewBox="0 0 17 16" fill="none" xmlns="http://www.w3.org/2000/svg">
<g id="SVG">
<path id="Vector" d="M13.106 1.63818H11.606V1.13818C11.606 1.00558 11.5533 0.878398 11.4595 0.78463C11.3657 0.690862 11.2386 0.638184 11.106 0.638184C10.9733 0.638184 10.8462 0.690862 10.7524 0.78463C10.6586 0.878398 10.606 1.00558 10.606 1.13818V1.63818H5.60596V1.13818C5.60596 1.00558 5.55328 0.878398 5.45951 0.78463C5.36574 0.690862 5.23857 0.638184 5.10596 0.638184C4.97335 0.638184 4.84617 0.690862 4.7524 0.78463C4.65864 0.878398 4.60596 1.00558 4.60596 1.13818V1.63818H3.10596C2.84074 1.63818 2.58639 1.74354 2.39885 1.93108C2.21131 2.11861 2.10596 2.37297 2.10596 2.63818V12.6382C2.10596 12.9034 2.21131 13.1578 2.39885 13.3453C2.58639 13.5328 2.84074 13.6382 3.10596 13.6382H13.106C13.3712 13.6382 13.6255 13.5328 13.8131 13.3453C14.0006 13.1578 14.106 12.9034 14.106 12.6382V2.63818C14.106 2.37297 14.0006 2.11861 13.8131 1.93108C13.6255 1.74354 13.3712 1.63818 13.106 1.63818ZM4.60596 2.63818V3.13818C4.60596 3.27079 4.65864 3.39797 4.7524 3.49174C4.84617 3.58551 4.97335 3.63818 5.10596 3.63818C5.23857 3.63818 5.36574 3.58551 5.45951 3.49174C5.55328 3.39797 5.60596 3.27079 5.60596 3.13818V2.63818H10.606V3.13818C10.606 3.27079 10.6586 3.39797 10.7524 3.49174C10.8462 3.58551 10.9733 3.63818 11.106 3.63818C11.2386 3.63818 11.3657 3.58551 11.4595 3.49174C11.5533 3.39797 11.606 3.27079 11.606 3.13818V2.63818H13.106V4.63818H3.10596V2.63818H4.60596ZM13.106 12.6382H3.10596V5.63818H13.106V12.6382Z" fill="white" fill-opacity="0.56"/>
</g>
</svg>
