<svg width="501" height="456" viewBox="0 0 501 456" fill="none" xmlns="http://www.w3.org/2000/svg">
<g opacity="0.6" filter="url(#filter0_bd_417_44027)">
<path d="M583.81 1060.33L312.597 885.046C269.84 857.411 244.018 809.977 244.018 759.067V483.052C244.018 432.347 269.634 385.074 312.113 357.388L466.244 256.928C499.35 235.35 541.985 235.009 575.432 256.054C639.019 296.062 638.406 388.956 574.297 428.123L543.729 446.797C506.535 469.521 484.081 510.175 484.653 553.758L489.422 916.82C490.037 963.653 512.492 1007.51 550.13 1035.39L583.81 1060.33ZM214.846 699.452C214.846 752.949 155.606 785.208 110.668 756.18C91.4101 743.74 79.7783 722.379 79.7783 699.452V378.883C79.7783 327.808 105.767 280.243 148.749 252.652L408.352 86.0081C456.838 54.8839 520.558 89.6997 520.558 147.316C520.558 172.036 508.022 195.07 487.263 208.493L283.399 340.312C240.657 367.949 214.846 415.375 214.846 466.274V699.452ZM893.05 439.266C847.988 468.421 788.535 436.075 788.535 382.404V330.445C788.535 297.874 772.019 267.524 744.667 249.837L685.404 211.514C664.537 198.02 651.936 174.865 651.936 150.015C651.936 91.9867 716.206 57.0067 764.937 88.5129L861.815 151.148C900.577 176.21 923.986 219.219 923.986 265.378V365.763V382.404C923.986 405.379 912.339 426.786 893.05 439.266Z" fill="white" fill-opacity="0.01" shape-rendering="crispEdges"/>
</g>
<g style="mix-blend-mode:overlay">
<path d="M574.204 1053.68L312.799 884.733C270.148 857.167 244.39 809.85 244.39 759.067V483.052C244.39 432.473 269.943 385.317 312.316 357.699L466.448 257.24C499.432 235.742 541.91 235.402 575.234 256.369C638.587 296.23 637.977 388.782 574.103 427.805L543.535 446.48C506.229 469.272 483.707 510.048 484.281 553.762L489.049 916.825C489.666 963.775 512.177 1007.74 549.909 1035.69L574.204 1053.68ZM214.474 699.452C214.474 752.655 155.56 784.735 110.87 755.868C91.7182 743.496 80.1506 722.253 80.1506 699.452V378.883C80.1506 327.935 106.075 280.488 148.95 252.966L408.553 86.3214C456.791 55.3562 520.186 89.9941 520.186 147.316C520.186 171.91 507.714 194.826 487.061 208.18L283.197 340C240.349 367.705 214.474 415.249 214.474 466.274V699.452ZM892.847 438.954C848.033 467.948 788.907 435.78 788.907 382.404V330.445C788.907 297.747 772.327 267.28 744.87 249.525L685.606 211.202C664.845 197.776 652.308 174.739 652.308 150.015C652.308 92.2816 716.252 57.4794 764.735 88.8255L861.613 151.461C900.269 176.454 923.614 219.346 923.614 265.378V365.763V382.404C923.614 405.252 912.031 426.542 892.847 438.954Z" stroke="url(#paint0_linear_417_44027)" stroke-width="0.744481"/>
</g>
<defs>
<filter id="filter0_bd_417_44027" x="0.118873" y="-5.31472" width="993.104" height="1134.89" filterUnits="userSpaceOnUse" color-interpolation-filters="sRGB">
<feFlood flood-opacity="0" result="BackgroundImageFix"/>
<feGaussianBlur in="BackgroundImageFix" stdDeviation="1.48896"/>
<feComposite in2="SourceAlpha" operator="in" result="effect1_backgroundBlur_417_44027"/>
<feColorMatrix in="SourceAlpha" type="matrix" values="0 0 0 0 0 0 0 0 0 0 0 0 0 0 0 0 0 0 127 0" result="hardAlpha"/>
<feOffset dx="-5.21137" dy="-5.21137"/>
<feGaussianBlur stdDeviation="37.224"/>
<feComposite in2="hardAlpha" operator="out"/>
<feColorMatrix type="matrix" values="0 0 0 0 0.00392157 0 0 0 0 0.0117647 0 0 0 0 0.0784314 0 0 0 0.32 0"/>
<feBlend mode="normal" in2="effect1_backgroundBlur_417_44027" result="effect2_dropShadow_417_44027"/>
<feBlend mode="normal" in="SourceGraphic" in2="effect2_dropShadow_417_44027" result="shape"/>
</filter>
<linearGradient id="paint0_linear_417_44027" x1="471.225" y1="404.881" x2="450.463" y2="130.212" gradientUnits="userSpaceOnUse">
<stop stop-color="white" stop-opacity="0.48"/>
<stop offset="1" stop-color="white"/>
</linearGradient>
</defs>
</svg>
