<svg width="17" height="16" viewBox="0 0 17 16" fill="none" xmlns="http://www.w3.org/2000/svg">
<g id="Frame">
<path id="Vector" d="M14.5389 12.8884C13.587 11.2428 12.1201 10.0628 10.4082 9.50342C11.255 8.99933 11.9129 8.23122 12.2809 7.31704C12.6489 6.40286 12.7066 5.39317 12.4452 4.44302C12.1837 3.49286 11.6177 2.65479 10.8339 2.0575C10.05 1.4602 9.09183 1.13672 8.10637 1.13672C7.12091 1.13672 6.1627 1.4602 5.37889 2.0575C4.59507 2.65479 4.02899 3.49286 3.76758 4.44302C3.50617 5.39317 3.56389 6.40286 3.93186 7.31704C4.29984 8.23122 4.95773 8.99933 5.8045 9.50342C4.09262 10.0622 2.62575 11.2422 1.67387 12.8884C1.63896 12.9453 1.61581 13.0087 1.60578 13.0747C1.59574 13.1407 1.59903 13.208 1.61545 13.2728C1.63187 13.3375 1.66108 13.3983 1.70137 13.4515C1.74165 13.5047 1.79219 13.5494 1.85001 13.5828C1.90783 13.6162 1.97175 13.6377 2.038 13.6459C2.10425 13.6542 2.17149 13.6492 2.23576 13.6311C2.30002 13.6129 2.36001 13.5821 2.41218 13.5405C2.46434 13.4988 2.50763 13.4471 2.5395 13.3884C3.717 11.3534 5.79825 10.1384 8.10637 10.1384C10.4145 10.1384 12.4957 11.3534 13.6732 13.3884C13.7051 13.4471 13.7484 13.4988 13.8006 13.5405C13.8527 13.5821 13.9127 13.6129 13.977 13.6311C14.0412 13.6492 14.1085 13.6542 14.1747 13.6459C14.241 13.6377 14.3049 13.6162 14.3627 13.5828C14.4205 13.5494 14.4711 13.5047 14.5114 13.4515C14.5517 13.3983 14.5809 13.3375 14.5973 13.2728C14.6137 13.208 14.617 13.1407 14.607 13.0747C14.5969 13.0087 14.5738 12.9453 14.5389 12.8884ZM4.60637 5.63842C4.60637 4.94618 4.81164 4.2695 5.19623 3.69392C5.58081 3.11835 6.12744 2.66975 6.76698 2.40484C7.40652 2.13993 8.11025 2.07062 8.78919 2.20567C9.46812 2.34072 10.0918 2.67406 10.5812 3.16355C11.0707 3.65303 11.4041 4.27667 11.5391 4.9556C11.6742 5.63454 11.6049 6.33827 11.3399 6.97781C11.075 7.61735 10.6264 8.16398 10.0509 8.54856C9.47529 8.93315 8.7986 9.13842 8.10637 9.13842C7.17842 9.13743 6.28876 8.76836 5.63259 8.1122C4.97643 7.45603 4.60736 6.56637 4.60637 5.63842Z" fill="white" fill-opacity="0.56"/>
</g>
</svg>
